<svg width="1600" height="900" viewBox="0 0 1600 900" fill="none" xmlns="http://www.w3.org/2000/svg">
  <defs>
    <linearGradient id="bg" x1="0" y1="0" x2="1600" y2="900" gradientUnits="userSpaceOnUse">
      <stop offset="0" stop-color="#0B1220"/>
      <stop offset="1" stop-color="#0E2A44"/>
    </linearGradient>
    <linearGradient id="accent" x1="200" y1="200" x2="1400" y2="700" gradientUnits="userSpaceOnUse">
      <stop offset="0" stop-color="#38BDF8"/>
      <stop offset="1" stop-color="#2563EB"/>
    </linearGradient>
    <filter id="glow" x="0" y="0" width="1600" height="900" filterUnits="userSpaceOnUse" color-interpolation-filters="sRGB">
      <feGaussianBlur stdDeviation="40"/>
    </filter>
  </defs>

  <rect width="1600" height="900" fill="url(#bg)"/>

  <g opacity="0.14">
    <path d="M0 120H1600M0 240H1600M0 360H1600M0 480H1600M0 600H1600M0 720H1600M0 840H1600" stroke="#94A3B8" stroke-width="1"/>
    <path d="M160 0V900M320 0V900M480 0V900M640 0V900M800 0V900M960 0V900M1120 0V900M1280 0V900M1440 0V900" stroke="#94A3B8" stroke-width="1"/>
  </g>

  <ellipse cx="1250" cy="210" rx="300" ry="140" fill="#38BDF8" opacity="0.2" filter="url(#glow)"/>
  <ellipse cx="330" cy="740" rx="320" ry="150" fill="#2563EB" opacity="0.22" filter="url(#glow)"/>

  <!-- tenants -->
  <g>
    <rect x="160" y="150" width="252" height="134" rx="20" fill="#0B1220" stroke="#27476B" stroke-width="2"/>
    <circle cx="206" cy="200" r="16" fill="#38BDF8" opacity="0.9"/>
    <rect x="236" y="192" width="120" height="11" rx="5.5" fill="#94A3B8" opacity="0.7"/>
    <rect x="196" y="234" width="180" height="9" rx="4.5" fill="#94A3B8" opacity="0.4"/>

    <rect x="442" y="150" width="252" height="134" rx="20" fill="#0B1220" stroke="#27476B" stroke-width="2"/>
    <circle cx="488" cy="200" r="16" fill="#818CF8" opacity="0.9"/>
    <rect x="518" y="192" width="120" height="11" rx="5.5" fill="#94A3B8" opacity="0.7"/>
    <rect x="478" y="234" width="180" height="9" rx="4.5" fill="#94A3B8" opacity="0.4"/>

    <rect x="724" y="150" width="252" height="134" rx="20" fill="#0B1220" stroke="#27476B" stroke-width="2"/>
    <circle cx="770" cy="200" r="16" fill="#34D399" opacity="0.9"/>
    <rect x="800" y="192" width="120" height="11" rx="5.5" fill="#94A3B8" opacity="0.7"/>
    <rect x="760" y="234" width="180" height="9" rx="4.5" fill="#94A3B8" opacity="0.4"/>

    <rect x="1006" y="150" width="252" height="134" rx="20" fill="#0B1220" stroke="#27476B" stroke-width="2" stroke-dasharray="8 7"/>
    <text x="1132" y="230" text-anchor="middle" font-family="system-ui,sans-serif" font-size="48" font-weight="600" fill="#475569">+ n</text>

    <path d="M286 284V330M568 284V330M850 284V330M1132 284V330" stroke="#38BDF8" stroke-width="3" stroke-linecap="round" opacity="0.6"/>
    <path d="M286 330H1132" stroke="#38BDF8" stroke-width="3" stroke-linecap="round" opacity="0.6"/>
    <path d="M709 330V372" stroke="#38BDF8" stroke-width="3" stroke-linecap="round" opacity="0.6"/>

    <rect x="481" y="372" width="456" height="92" rx="20" fill="url(#accent)"/>
    <text x="709" y="430" text-anchor="middle" font-family="system-ui,sans-serif" font-size="31" font-weight="700" letter-spacing="1" fill="#04182B">TenantResolver</text>
  </g>

  <text x="160" y="566" font-family="system-ui,sans-serif" font-size="26" font-weight="700" letter-spacing="5" fill="#7DD3FC">ARQUITECTURA</text>
  <text x="160" y="654" font-family="Georgia,serif" font-size="74" font-weight="600" fill="#F1F5F9">Multi-Tenant en .NET 9</text>
  <text x="160" y="742" font-family="Georgia,serif" font-size="74" font-weight="600" fill="#7DD3FC">lecciones de un ERP/POS</text>
  <text x="160" y="812" font-family="system-ui,sans-serif" font-size="27" fill="#94A3B8">Clean Architecture · PostgreSQL · firmador DTE</text>
</svg>
