<svg width="1600" height="900" viewBox="0 0 1600 900" fill="none" xmlns="http://www.w3.org/2000/svg">
  <defs>
    <linearGradient id="bg" x1="0" y1="0" x2="1600" y2="900" gradientUnits="userSpaceOnUse">
      <stop offset="0" stop-color="#0F172A"/>
      <stop offset="1" stop-color="#1E293B"/>
    </linearGradient>
    <linearGradient id="accent" x1="300" y1="240" x2="1300" y2="720" gradientUnits="userSpaceOnUse">
      <stop offset="0" stop-color="#F97316"/>
      <stop offset="1" stop-color="#FB923C"/>
    </linearGradient>
    <filter id="glow" x="0" y="0" width="1600" height="900" filterUnits="userSpaceOnUse" color-interpolation-filters="sRGB">
      <feGaussianBlur stdDeviation="40"/>
    </filter>
  </defs>

  <rect width="1600" height="900" fill="url(#bg)"/>

  <g opacity="0.16">
    <path d="M0 120H1600M0 240H1600M0 360H1600M0 480H1600M0 600H1600M0 720H1600M0 840H1600" stroke="#94A3B8" stroke-width="1"/>
    <path d="M160 0V900M320 0V900M480 0V900M640 0V900M800 0V900M960 0V900M1120 0V900M1280 0V900M1440 0V900" stroke="#94A3B8" stroke-width="1"/>
  </g>

  <ellipse cx="1180" cy="180" rx="280" ry="130" fill="#F97316" opacity="0.2" filter="url(#glow)"/>
  <ellipse cx="360" cy="760" rx="320" ry="150" fill="#FB923C" opacity="0.16" filter="url(#glow)"/>

  <rect x="120" y="120" width="1360" height="660" rx="28" fill="#020617" fill-opacity="0.65" stroke="#334155" stroke-width="2"/>
  <rect x="120" y="120" width="1360" height="64" rx="28" fill="#0B1220"/>
  <circle cx="164" cy="152" r="8" fill="#F87171"/>
  <circle cx="194" cy="152" r="8" fill="#FBBF24"/>
  <circle cx="224" cy="152" r="8" fill="#34D399"/>
  <text x="270" y="159" fill="#94A3B8" font-family="Consolas, 'Courier New', monospace" font-size="20">prix-r9 --config escenario.json</text>

  <text x="190" y="330" fill="#E2E8F0" font-family="Consolas, 'Courier New', monospace" font-size="180" font-weight="700">&gt;_</text>
  <rect x="640" y="240" width="6" height="450" fill="url(#accent)" opacity="0.9"/>

  <text x="700" y="315" fill="#E2E8F0" font-family="Segoe UI, Arial, sans-serif" font-size="78" font-weight="700">Prix-R9</text>
  <text x="700" y="370" fill="#94A3B8" font-family="Segoe UI, Arial, sans-serif" font-size="28">CLI de pruebas de carga HTTP/REST</text>
  <text x="700" y="425" fill="#CBD5E1" font-family="Consolas, 'Courier New', monospace" font-size="24">ramp-up | multipart | steps encadenados</text>

  <rect x="700" y="470" width="210" height="52" rx="12" fill="#0F172A" stroke="#334155"/>
  <text x="735" y="503" fill="#FB923C" font-family="Segoe UI, Arial, sans-serif" font-size="24" font-weight="700">npm v2.0.4</text>

  <rect x="930" y="470" width="168" height="52" rx="12" fill="#0F172A" stroke="#334155"/>
  <text x="976" y="503" fill="#F97316" font-family="Segoe UI, Arial, sans-serif" font-size="24" font-weight="700">ISC</text>

  <rect x="1118" y="470" width="240" height="52" rx="12" fill="#0F172A" stroke="#334155"/>
  <text x="1148" y="503" fill="#FDBA74" font-family="Segoe UI, Arial, sans-serif" font-size="24" font-weight="700">Node.js &gt;= 16</text>

  <text x="700" y="580" fill="#E2E8F0" font-family="Consolas, 'Courier New', monospace" font-size="24">npm install -g prix-r9</text>
  <text x="700" y="628" fill="#94A3B8" font-family="Consolas, 'Courier New', monospace" font-size="24">prix-r9 --config mi-config.json</text>
  <text x="700" y="676" fill="#94A3B8" font-family="Consolas, 'Courier New', monospace" font-size="24">prix-r9-curl -i curl.txt -o endpoint.json</text>
</svg>
